# xmcd
# 
# Track frame offsets:
#     150
#     30462
#     57686
#     77579
#     91779
#     102587
#     116866
#     126780
#     145672
#     160282
#     168120
#     176410
#     197169
# 
# Disc length: 2731
# 
# Revision: 8
# Processed by: cddbd v1.5.2PL0 Copyright (c) Steve Scherf et al.
# Submitted via: fre:ac v1.0.27
# 
DISCID=aa0aa90d
DTITLE=John Sinclair - 016 Die Horror-Cops (1v3)
DYEAR=2002
DGENRE=Hörspiel
TTITLE0=Montag 19.31h
TTITLE1=Montag 20.04h
TTITLE2=Dienstag 5.10h
TTITLE3=Dienstag 7.54h
TTITLE4=John
TTITLE5=Hank Stone
TTITLE6=Dienstag 18.10h
TTITLE7=Mr Sinclair
TTITLE8=Puh
TTITLE9=Dienstag 19.23h
TTITLE10=Diese Laurie
TTITLE11=Dienstag 21.04h
TTITLE12=Ja hallo
EXTD=YEAR: 2002
EXTT0=
EXTT1=
EXTT2=
EXTT3=
EXTT4=
EXTT5=
EXTT6=
EXTT7=
EXTT8=
EXTT9=
EXTT10=
EXTT11=
EXTT12=
PLAYORDER=
